<svg xmlns="http://www.w3.org/2000/svg" viewBox="0 0 36 39.93"><defs><style>.cls-1{fill:#008fee;}.cls-2{fill:#fff;}</style></defs><title>bluelabel</title><g id="Layer_2" data-name="Layer 2"><g id="Layer_1-2" data-name="Layer 1"><polygon class="cls-1" points="18 28.3 36 39.93 36 0 0 0 0 39.93 18 28.3"/><path class="cls-2" d="M25.81,15.7,17.43,7.32C17.15,7,16,7.08,15.76,7.08L10.68,7a.68.68,0,0,0-.7.7l.08,5.08c0,.26-.05,1.4.23,1.68l8.38,8.38a.74.74,0,0,0,1,0l6.1-6.11A.72.72,0,0,0,25.81,15.7ZM13.5,11.75a1.25,1.25,0,1,1,1.25-1.25A1.25,1.25,0,0,1,13.5,11.75Z"/></g></g></svg>