<svg xmlns="http://www.w3.org/2000/svg" viewBox="0 0 67 67"><defs><style>.cls-1{fill:#cdcdcd;}.cls-2{fill:none;stroke:#cdcdcd;stroke-miterlimit:10;stroke-width:3px;}</style></defs><title>google-plus-rounded</title><g id="Layer_2" data-name="Layer 2"><g id="Layer_1-2" data-name="Layer 1"><path class="cls-1" d="M36.75,32.15a8,8,0,0,1,.15,1.57c0,5.39-3.62,9.22-9.06,9.22a9.44,9.44,0,0,1,0-18.88,9,9,0,0,1,6.32,2.47L31.6,29a5.31,5.31,0,0,0-3.76-1.45,6,6,0,0,0,0,11.92,5.11,5.11,0,0,0,5.35-4.07H27.84V32.15Zm9.11.31V29.73H43.11v2.73H40.37v2.76h2.74V38h2.75V35.22H48.6V32.46Z"/><circle class="cls-2" cx="33.5" cy="33.5" r="32"/></g></g></svg>