<svg xmlns="http://www.w3.org/2000/svg" viewBox="0 0 29.6 28"><defs><style>.cls-1{fill:#4c4c4c;}</style></defs><title>messages-black</title><g id="Layer_2" data-name="Layer 2"><g id="Layer_1-2" data-name="Layer 1"><path class="cls-1" d="M21.6,1.92V13.28a1.92,1.92,0,0,1-1.92,1.92H5L0,20.8V1.92A1.92,1.92,0,0,1,1.92,0H19.68A1.92,1.92,0,0,1,21.6,1.92Z"/><path class="cls-1" d="M29.6,6.72V28l-5-5.6H8.32A1.92,1.92,0,0,1,6.4,20.48V17.6H22.08A1.92,1.92,0,0,0,24,15.68V4.8h3.68A1.92,1.92,0,0,1,29.6,6.72Z"/></g></g></svg>