<svg xmlns="http://www.w3.org/2000/svg" viewBox="0 0 26.99 26.99"><defs><style>.cls-1{fill:#4c4c4c;}</style></defs><title>phone</title><g id="Layer_2" data-name="Layer 2"><g id="Layer_1-2" data-name="Layer 1"><path class="cls-1" d="M26.22,19.07l-5.9-2.53a1.27,1.27,0,0,0-1.48.37L16.23,20.1a19.48,19.48,0,0,1-9.34-9.34l3.19-2.61a1.25,1.25,0,0,0,.36-1.48L7.91.76A1.27,1.27,0,0,0,6.46,0L1,1.3A1.26,1.26,0,0,0,0,2.53,24.46,24.46,0,0,0,24.46,27a1.27,1.27,0,0,0,1.24-1L27,20.53a1.28,1.28,0,0,0-.74-1.46Z"/></g></g></svg>