<svg xmlns="http://www.w3.org/2000/svg" viewBox="0 0 16.47 15.72"><defs><style>.cls-1{fill:#008fee;}</style></defs><title>blue-star</title><g id="Layer_2" data-name="Layer 2"><g id="Layer_1-2" data-name="Layer 1"><path class="cls-1" d="M8.66.28,10.7,5a.45.45,0,0,0,.39.28L16,5.7a.46.46,0,0,1,.28.81l-4,3.53a.49.49,0,0,0-.14.47l1.23,4.56a.47.47,0,0,1-.7.52L8.5,12.94a.5.5,0,0,0-.5,0L3.68,15.65A.47.47,0,0,1,3,15.17l.95-4.93a.47.47,0,0,0-.15-.43L.15,6.49a.47.47,0,0,1,.27-.81l4.77-.45A.47.47,0,0,0,5.57,5L7.81.27A.46.46,0,0,1,8.66.28Z"/></g></g></svg>