<svg xmlns="http://www.w3.org/2000/svg" viewBox="0 0 119.38 41"><defs><style>.cls-1{fill:#23599b;}.cls-2{fill:#f7f7f7;}.cls-3{fill:none;stroke:#cdcdcd;stroke-miterlimit:10;}</style></defs><title>facebook</title><g id="Layer_2" data-name="Layer 2"><g id="Layer_1-2" data-name="Layer 1"><rect class="cls-1" y="0.5" width="40" height="40" rx="3.84"/><path class="cls-2" d="M32.77,25.18l1-6.32H27.67V14.75c0-1.73.85-3.42,3.57-3.42H34V6a33.38,33.38,0,0,0-4.9-.43c-5,0-8.27,3-8.27,8.52v4.82H15.28v6.32h5.55v15.3h6.84V25.18Z"/><path class="cls-3" d="M115,.5H48.72a3.84,3.84,0,0,0-3.84,3.84v13.5L41.72,21l3.16,3.16v12.5a3.84,3.84,0,0,0,3.84,3.84H115a3.84,3.84,0,0,0,3.84-3.84V4.34A3.84,3.84,0,0,0,115,.5Z"/></g></g></svg>