<svg xmlns="http://www.w3.org/2000/svg" viewBox="0 0 119.28 41"><defs><style>.cls-1{fill:#fc4a35;}.cls-2{fill:#fff;}.cls-3{fill:none;stroke:#cdcdcd;stroke-miterlimit:10;}</style></defs><title>google-plus</title><g id="Layer_2" data-name="Layer 2"><g id="Layer_1-2" data-name="Layer 1"><rect class="cls-1" width="40" height="40" rx="3.84"/><path class="cls-2" d="M23.25,18.65a8,8,0,0,1,.15,1.57c0,5.39-3.62,9.22-9.06,9.22a9.44,9.44,0,0,1,0-18.88A9,9,0,0,1,20.66,13L18.1,15.49A5.31,5.31,0,0,0,14.34,14a6,6,0,0,0,0,11.92,5.11,5.11,0,0,0,5.35-4.07H14.34V18.65Zm9.11.31V16.23H29.61V19H26.87v2.76h2.74v2.74h2.75V21.72H35.1V19Z"/><path class="cls-3" d="M114.94.5H48.62a3.84,3.84,0,0,0-3.84,3.84v13.5L41.62,21l3.16,3.16v12.5a3.84,3.84,0,0,0,3.84,3.84h66.32a3.84,3.84,0,0,0,3.84-3.84V4.34A3.84,3.84,0,0,0,114.94.5Z"/></g></g></svg>