<svg xmlns="http://www.w3.org/2000/svg" viewBox="0 0 119.5 41"><defs><style>.cls-1{fill:#00aef1;}.cls-2{fill:#fff;}.cls-3{fill:none;stroke:#cdcdcd;stroke-miterlimit:10;}</style></defs><title>twitter</title><g id="Layer_2" data-name="Layer 2"><g id="Layer_1-2" data-name="Layer 1"><rect class="cls-1" y="0.5" width="40" height="40" rx="3.84"/><path class="cls-2" d="M31.57,14.57c0,.26,0,.51,0,.77,0,7.9-6,17-17,17a16.85,16.85,0,0,1-9.16-2.68,13.62,13.62,0,0,0,1.44.07,11.94,11.94,0,0,0,7.41-2.55A6,6,0,0,1,8.71,23a7,7,0,0,0,1.12.09,6.33,6.33,0,0,0,1.58-.2,6,6,0,0,1-4.79-5.86V17a6.09,6.09,0,0,0,2.7.76,6,6,0,0,1-2.66-5,5.92,5.92,0,0,1,.81-3A17,17,0,0,0,19.78,16a6.93,6.93,0,0,1-.15-1.37A6,6,0,0,1,30,10.56a11.69,11.69,0,0,0,3.79-1.45,5.92,5.92,0,0,1-2.62,3.29,11.68,11.68,0,0,0,3.43-.92,12.9,12.9,0,0,1-3,3.09Z"/><path class="cls-3" d="M115.16.5H48.84A3.84,3.84,0,0,0,45,4.34v13.5L41.84,21,45,24.16v12.5a3.84,3.84,0,0,0,3.84,3.84h66.32A3.84,3.84,0,0,0,119,36.66V4.34A3.84,3.84,0,0,0,115.16.5Z"/></g></g></svg>