<svg xmlns="http://www.w3.org/2000/svg" viewBox="0 0 67 67"><defs><style>.cls-1{fill:#cdcdcd;}.cls-2{fill:none;stroke:#cdcdcd;stroke-miterlimit:10;stroke-width:3px;}</style></defs><title>twitter-rounded</title><g id="Layer_2" data-name="Layer 2"><g id="Layer_1-2" data-name="Layer 1"><path class="cls-1" d="M42.71,28.78c0,.2,0,.41,0,.62A13.52,13.52,0,0,1,21.91,40.78a8.68,8.68,0,0,0,1.15.06,9.49,9.49,0,0,0,5.89-2,4.77,4.77,0,0,1-4.44-3.29,6.69,6.69,0,0,0,.9.07,5.16,5.16,0,0,0,1.25-.16,4.76,4.76,0,0,1-3.81-4.67v-.05a4.83,4.83,0,0,0,2.15.6,4.75,4.75,0,0,1-2.12-4,4.66,4.66,0,0,1,.65-2.4,13.5,13.5,0,0,0,9.79,5,5.76,5.76,0,0,1-.11-1.09,4.75,4.75,0,0,1,8.22-3.25,9.54,9.54,0,0,0,3-1.15,4.75,4.75,0,0,1-2.08,2.62,9.68,9.68,0,0,0,2.73-.74,10.29,10.29,0,0,1-2.38,2.46Z"/><circle class="cls-2" cx="33.5" cy="33.5" r="32"/></g></g></svg>