<svg xmlns="http://www.w3.org/2000/svg" viewBox="0 0 28 28"><defs><style>.cls-1{fill:#4c4c4c;}</style></defs><title>user-circle</title><g id="Layer_2" data-name="Layer 2"><g id="Layer_1-2" data-name="Layer 1"><path class="cls-1" d="M14,0A14,14,0,1,0,28,14,14,14,0,0,0,14,0Zm0,5.42a5,5,0,1,1-5,5A5,5,0,0,1,14,5.42Zm0,19.42A10.82,10.82,0,0,1,5.73,21a6.29,6.29,0,0,1,5.56-3.38,1.34,1.34,0,0,1,.4.07,7.71,7.71,0,0,0,2.31.38,7.66,7.66,0,0,0,2.31-.38,1.34,1.34,0,0,1,.4-.07A6.29,6.29,0,0,1,22.27,21,10.82,10.82,0,0,1,14,24.84Z"/></g></g></svg>